<?xml version="1.0" encoding="utf-8"?>
<!-- Generator: Adobe Illustrator 18.0.0, SVG Export Plug-In . SVG Version: 6.00 Build 0)  -->
<!DOCTYPE svg PUBLIC "-//W3C//DTD SVG 1.1//EN" "http://www.w3.org/Graphics/SVG/1.1/DTD/svg11.dtd">
<svg version="1.1" xmlns="http://www.w3.org/2000/svg" xmlns:xlink="http://www.w3.org/1999/xlink" x="0px" y="0px"
	 viewBox="0 0 720 720" enable-background="new 0 0 720 720" xml:space="preserve">
<g id="Layer_1">
</g>
<g id="Layer_2">
	<g>
		<circle fill="#F7F1A7" cx="359.8" cy="360.1" r="290.4"/>
		<circle fill="#FDCD01" cx="359.8" cy="360.1" r="270.4"/>
		<path fill="#EFC100" d="M632,360.1c0-149.3-121-270.4-270.4-270.4v540.7C511,630.5,632,509.4,632,360.1z"/>
		<polygon fill="#FFFFFF" points="265.3,127.9 265.3,127.9 280.2,185.7 296.9,178.7 		"/>
		<path fill="#F8F41F" d="M187.6,360.1c0,95.1,77.1,172.2,172.2,172.2V187.9C264.7,187.9,187.6,265,187.6,360.1z"/>
		<path fill="#EFE520" d="M532.2,360.1c0-95.1-78.2-172.2-172.2-172.2v344.5C454,532.3,532.2,455.2,532.2,360.1z"/>
		<path fill="#D3AA00" d="M360.1,189.4c45.2,0,88,17.8,120.4,50c32.5,32.4,50.4,75.2,50.4,120.7s-17.9,88.4-50.4,120.7
			c-32.4,32.2-75.1,50-120.4,50c-45.8,0-88.7-17.8-120.9-50c-32.1-32.2-49.8-75.1-49.8-120.7s17.7-88.5,49.8-120.7
			C271.4,207.1,314.3,189.4,360.1,189.4 M360.1,187.9c-95.6,0-172.2,77.1-172.2,172.2s76.6,172.2,172.2,172.2
			c94.1,0,172.2-77.1,172.2-172.2S454.2,187.9,360.1,187.9L360.1,187.9z"/>
		<polygon fill="#FFFFFF" points="129.2,263.8 129.2,263.8 180.6,294.2 187.5,277.5 		"/>
		<polygon fill="#FFFFFF" points="183.7,182.4 183.7,182.4 219.5,230.1 232.3,217.3 		"/>
		<polygon fill="#FFFFFF" points="593.6,264 593.6,264 535.8,278.9 542.8,295.6 		"/>
		<polygon fill="#FFFFFF" points="457.6,128 457.6,128 427.3,179.3 444,186.3 		"/>
		<polygon fill="#FFFFFF" points="539.1,182.4 539.1,182.4 491.4,218.3 504.2,231.1 		"/>
		<polygon fill="#FFFFFF" points="457.5,592.4 457.5,592.4 442.6,534.6 425.9,541.5 		"/>
		<polygon fill="#FFFFFF" points="593.5,456.4 593.5,456.4 542.2,426 535.2,442.8 		"/>
		<polygon fill="#FFFFFF" points="539.1,537.8 539.1,537.8 503.2,490.2 490.4,502.9 		"/>
		<polygon fill="#FFFFFF" points="129.1,456.2 129.1,456.2 186.9,441.3 180,424.6 		"/>
		<polygon fill="#FFFFFF" points="265.1,592.3 265.1,592.3 295.4,540.9 278.7,534 		"/>
		<polygon fill="#FFFFFF" points="183.7,537.8 183.7,537.8 231.3,502 218.5,489.2 		"/>
		<rect x="360" y="90" fill="#A37D00" width="3" height="141"/>
		<rect x="90" y="358" fill="#A37D00" width="540" height="3"/>
		<g>
			<circle fill="#A37D00" cx="348.9" cy="165" r="3"/>
			<circle fill="#A37D00" cx="348.9" cy="142.6" r="3"/>
			<circle fill="#A37D00" cx="348.9" cy="118.7" r="3"/>
			<circle fill="#A37D00" cx="374.3" cy="165" r="3"/>
			<circle fill="#A37D00" cx="374.3" cy="142.6" r="3"/>
			<circle fill="#A37D00" cx="374.3" cy="118.7" r="3"/>
		</g>
		<path fill="#EBD100" d="M233.4,360.1c0,70.2,56.6,127.3,126.6,128.1V232C290,232.8,233.4,289.9,233.4,360.1z"/>
		<path fill="#E5C400" d="M489.5,360.1c0-70.8-57.3-128.2-128.1-128.2c-0.5,0-1.5,0-1.5,0v256.3c0,0,1,0,1.5,0
			C432.3,488.3,489.5,430.9,489.5,360.1z"/>
		<g>
			<circle fill="#A37D00" cx="556.5" cy="347.6" r="3"/>
			<circle fill="#A37D00" cx="578.9" cy="347.6" r="3"/>
			<circle fill="#A37D00" cx="602.8" cy="347.6" r="3"/>
			<circle fill="#A37D00" cx="556.5" cy="373" r="3"/>
			<circle fill="#A37D00" cx="578.9" cy="373" r="3"/>
			<circle fill="#A37D00" cx="602.8" cy="373" r="3"/>
		</g>
		<g>
			<circle fill="#A37D00" cx="373.9" cy="555.2" r="3"/>
			<circle fill="#A37D00" cx="373.9" cy="577.6" r="3"/>
			<circle fill="#A37D00" cx="373.9" cy="601.5" r="3"/>
			<circle fill="#A37D00" cx="348.5" cy="555.2" r="3"/>
			<circle fill="#A37D00" cx="348.5" cy="577.6" r="3"/>
			<circle fill="#A37D00" cx="348.5" cy="601.5" r="3"/>
		</g>
		<g>
			<circle fill="#A37D00" cx="166.3" cy="372.6" r="3"/>
			<circle fill="#A37D00" cx="143.9" cy="372.6" r="3"/>
			<circle fill="#A37D00" cx="120" cy="372.6" r="3"/>
			<circle fill="#A37D00" cx="166.3" cy="347.2" r="3"/>
			<circle fill="#A37D00" cx="143.9" cy="347.2" r="3"/>
			<circle fill="#A37D00" cx="120" cy="347.2" r="3"/>
		</g>
		<path fill="#F8F41F" d="M361.4,231.9c-11.6,0-22.9,1.6-33.6,4.5l4,18.9h12c0,0,16.2,31.3,10.1,90.6c-0.1,0.8-0.3,1.6-0.6,2.4
			l-7.6,15.9c-0.2,0.5-0.2,1-0.1,1.5c0.7,3.4,5.7,16.8,16.2,22.8V232C361.5,232,361.5,231.9,361.4,231.9z"/>
		<path fill="#EFE520" d="M378,365.4c0.1-0.3-0.1-0.6-0.2-1c-0.9-2.5-7-14-8-16.7c-0.1-0.4-0.3-1-0.3-1.4c-6.3-59.7,10-91.4,10-91.4
			h12l4.2-18.6c-10.8-3-22.6-4.4-33.6-4.4v156.6C372,382.3,377.4,368.3,378,365.4z"/>
		<path fill="#B79A01" d="M268.7,335c-1.6-0.8-1.8-3.1-0.2-4.1c1.8-1.1,4.4-2.8,8.2-5.4c12.3-8.5,28.9-30.4,56.3,0
			c0,0,1.7,1.9,5.6,4.6c1.2,0.8,1,2.6-0.3,3.1c-2.4,0.8-5.7,2.6-10.3,6.3c-10.5,8.5-24.9,16.2-51.8,0
			C276.2,339.4,275.7,338.4,268.7,335z"/>
		<path fill="#B79A01" d="M458.2,335c1.6-0.8,1.8-3.1,0.2-4.1c-1.8-1.1-4.4-2.8-8.2-5.4c-12.3-8.5-28.9-30.4-56.3,0
			c0,0-1.7,1.9-5.6,4.6c-1.2,0.8-1,2.6,0.3,3.1c2.4,0.8,5.7,2.6,10.3,6.3c10.5,8.5,24.9,16.2,51.8,0
			C450.7,339.4,451.2,338.4,458.2,335z"/>
		<circle fill="#EBD100" cx="306.3" cy="329" r="14.6"/>
		<circle fill="#EBD100" cx="422.8" cy="329" r="14.6"/>
		<path fill="none" d="M362,233L362,233l-1.7,0c-10.5,0.1-21,1.5-30.9,4.2c0.2,1,0.3,1.7,0.3,1.8l3.2,15h10.7h0.9l0.4,0.5
			c0.7,1.3,16.3,32,10.3,91.6c-0.1,1-0.3,1.7-0.7,2.6l0,0.1l0,0.1l-7.6,15.9c-0.1,0.2-0.1,0.3,0,0.5c0.6,2.9,5.2,15.5,14.7,21.6
			c9.7-6.2,14.3-19.4,14.7-21.9c0,0,0-0.1,0-0.1c-0.4-1.1-2.1-4.6-3.8-7.9c-1.9-3.8-3.6-7.4-4.2-8.9c0-0.1-0.1-0.1-0.1-0.1
			c-0.1-0.3-0.2-0.5-0.3-1c-6.3-60,9.5-91.1,10.2-92.4l0.4-0.5h0.9h10.7l3.4-15.8c0,0,0,0.1,0,0l0.4-1.1
			C383.7,234.4,373,233,362,233z"/>
		<path fill="none" d="M451,449.6c23.9-24,37-55.8,37-89.7c0-33.9-13.1-65.8-37-89.7c-15.7-15.8-34.8-27-55.7-32.8l-3.9,17.6h-12
			c0,0-16.3,31.4-10,91.6c0,0.4,0.1,0.2,0.3,0.6c1,2.7,7,14.4,7.9,16.9c0.1,0.3,0.1,0.7,0,1c-0.6,2.7-4.8,15.7-14.8,22.4v99.2
			C396,486.4,427.5,473.2,451,449.6z"/>
		<path fill="none" d="M345.4,365.5c-0.1-0.5,0-0.9,0.1-1.4l7.6-15.9c0.3-0.8,0.5-1.4,0.6-2.2c6.1-59.8-10.1-91-10.1-91h-12
			l-3.9-17.6c-21.2,5.8-40.5,17.2-56.3,33.2C248,294.5,235,326.2,235,359.8c0,33.6,12.9,65.3,36.5,89.2
			c23.5,23.9,55.5,37.3,88.5,37.7v-99.2C351,381.1,346.1,368.8,345.4,365.5z"/>
		<path fill="#A37D00" d="M362,486.8L362,486.8c0,0,1,0,1,0v-99.2c0,0.3-1,0.7-1.5,1c-0.5-0.3-0.5-0.6-1.5-1V487c0,0,0.1,0,0.1,0
			L362,486.8z"/>
		<path fill="#A37D00" d="M360,488.2V630h3V488.2c0,0-1,0-1.6,0C360.9,488.3,360,488.2,360,488.2z"/>
		<path fill="#A37D00" d="M362,486.8L362,486.8l-1.9,0.2c0,0-0.1,0-0.1,0v1.2c0,0,0.9,0,1.4,0c0.5,0,1.6,0,1.6,0v-1.5
			C363,486.8,362,486.8,362,486.8z"/>
		<path fill="#D3AA00" d="M361.5,231.5c-0.5,0-1.4,0-1.4,0c-70.2,0.9-126.6,58-126.6,128.4S290,487.4,360,488.2v-1.5
			c-33-0.4-65-13.8-88.5-37.7C248,425.2,235,393.5,235,359.9c0-33.6,13-65.3,36.5-89.2c15.8-16,35.1-27.5,56.3-33.3l3.9,17.6h12
			c0,0,16.2,31.2,10.1,91c-0.1,0.8-0.3,1.4-0.6,2.1l-7.6,15.9c-0.2,0.5-0.2,0.9-0.1,1.4c0.7,3.2,5.3,15.6,14.7,22
			c0.5,0.3,1,0.7,1.5,1c0.5-0.3,1-0.6,1.5-1c9.7-6.6,14.2-19.7,14.7-22.4c0.1-0.3,0-0.7-0.1-1c-0.9-2.5-6.9-14.1-7.9-16.9
			c-0.1-0.4-0.2-0.3-0.3-0.7c-6.3-60.2,10-91.6,10-91.6h12l3.9-17.6c20.9,5.8,40,16.9,55.7,32.7c23.9,24,37,55.9,37,89.8
			c0,33.9-13.2,65.8-37.1,89.8c-23.5,23.6-55,36.8-88,37.2v1.5c70-0.8,126.5-58,126.5-128.4C489.5,289,432.3,231.5,361.5,231.5z
			 M393.7,238.2l-3.4,15.8h-10.7h-0.9l-0.4,0.5c-0.7,1.3-16.5,32.4-10.2,92.4c0.1,0.5,0.2,0.7,0.3,0.9c0,0,0,0.1,0.1,0.1
			c0.6,1.5,2.3,5.1,4.2,8.9c1.6,3.3,3.3,6.8,3.8,7.9c0,0,0,0.1,0,0.1c-0.5,2.4-5,15.7-14.7,21.9c-9.5-6.1-14.1-18.7-14.7-21.6
			c0-0.2,0-0.4,0-0.5l7.6-15.9l0-0.1l0-0.1c0.3-0.9,0.6-1.6,0.7-2.6c6.1-59.6-9.6-90.3-10.3-91.6l-0.4-0.5h-0.9h-10.7l-3.3-15
			c0-0.1-0.2-0.8-0.4-1.8c10-2.6,20.5-4,31-4.2l1.7,0v0c11,0,21.7,1.4,32.1,4.2L393.7,238.2C393.8,238.3,393.7,238.2,393.7,238.2z"
			/>
	</g>
</g>
</svg>
